<svg version="1.1" id="Layer_1" xmlns="http://www.w3.org/2000/svg" xmlns:xlink="http://www.w3.org/1999/xlink" x="0px" y="0px"
	 width="100%" viewBox="0 0 1200 1200" enable-background="new 0 0 1200 1200" xml:space="preserve">
<path fill="#000000" opacity="1.000000" stroke="none" 
	d="
M697.000000,1201.000000 
	C466.166656,1201.000000 235.833328,1200.989380 5.500042,1201.093506 
	C1.750801,1201.095215 0.906084,1200.249023 0.907021,1196.500000 
	C1.006199,799.500000 1.006199,402.500000 0.907021,5.500023 
	C0.906084,1.750933 1.750933,0.906086 5.500023,0.907022 
	C402.500000,1.006185 799.500000,1.006186 1196.500000,0.907022 
	C1200.249023,0.906086 1201.093994,1.750932 1201.093140,5.500023 
	C1200.993896,402.500000 1200.993896,799.500000 1201.093140,1196.500000 
	C1201.093994,1200.249023 1200.249268,1201.096436 1196.499878,1201.093994 
	C1030.166626,1200.985474 863.833313,1201.000000 697.000000,1201.000000 
z"/>
<path fill="#FF0000" opacity="1.000000" stroke="none" 
	d="
M289.278137,730.007263 
	C282.573242,728.986023 276.956543,725.599670 270.451111,723.659790 
	C270.484131,719.261536 266.889862,717.844543 264.395813,715.250854 
	C263.606903,711.886658 265.198273,709.152161 266.306885,706.597839 
	C272.460632,692.419617 277.528839,677.648926 285.488251,664.405151 
	C292.926483,652.028381 302.823853,641.443359 314.789490,633.038635 
	C317.982056,630.796082 321.144409,628.510437 324.660645,626.205566 
	C330.389465,629.282043 330.718506,629.140442 330.888916,623.294312 
	C338.117340,617.548645 346.397247,614.225891 354.730469,611.024170 
	C356.694763,610.269348 358.741547,609.730286 360.746613,609.080261 
	C364.422729,607.888367 369.677338,608.440002 371.400787,605.234314 
	C373.079498,602.111877 371.951447,597.461609 371.993011,593.481506 
	C372.100067,583.230347 371.557831,572.962646 372.976440,562.748352 
	C373.362885,559.965637 372.452393,558.786377 369.226837,557.773315 
	C346.352386,550.589783 324.767426,541.054382 307.132172,523.927795 
	C301.465118,518.424194 295.880859,512.993530 291.027740,506.354309 
	C290.920105,505.878357 290.965515,505.718353 290.994232,505.555389 
	C291.320160,503.705200 294.865845,503.504150 293.787231,501.416412 
	C292.477142,498.880768 290.291016,502.340179 288.179291,501.221130 
	C282.388031,493.695953 279.016357,485.189575 275.083496,477.015747 
	C271.209900,468.965118 268.258453,460.529419 265.819550,451.897064 
	C264.956421,448.842133 266.013000,447.557861 268.146362,445.923889 
	C283.242554,434.361938 300.607086,427.990204 318.916840,424.069519 
	C340.390991,419.471283 361.262726,421.657257 381.398590,430.714203 
	C391.009460,435.037079 401.464661,437.426971 410.265717,443.625671 
	C416.401489,447.947296 416.094269,447.498444 421.439148,441.284851 
	C432.942566,427.911804 443.569824,413.619659 457.835907,402.930359 
	C461.069336,400.507568 459.655090,398.900757 458.394470,396.979401 
	C451.724396,386.813477 446.523071,375.938202 443.037170,364.323975 
	C438.081909,347.814178 436.201599,330.869446 437.019135,313.654236 
	C437.892395,295.264954 444.027039,278.278046 451.132019,261.561829 
	C452.730560,257.800873 455.888123,255.440506 458.751587,252.801926 
	C460.185333,251.480789 461.899109,251.848557 463.456848,252.229324 
	C472.475098,254.433594 481.022156,257.771149 489.073395,262.489014 
	C499.349060,268.510345 509.890289,274.082153 519.665405,280.932281 
	C531.862244,289.479523 541.340088,300.466064 548.719360,313.331177 
	C551.479858,318.143860 554.264404,322.944275 556.918152,327.815552 
	C557.577576,329.026031 558.831726,330.474548 557.520874,331.907532 
	C552.374695,337.533264 550.513428,345.116486 545.971924,351.086151 
	C543.979309,353.705414 541.663452,357.765625 538.969055,357.424316 
	C536.178406,357.070831 536.804626,352.252991 535.986633,349.380280 
	C533.037354,339.023193 526.662170,330.540131 521.142273,321.543152 
	C511.898193,306.476257 497.844482,296.969116 483.412811,287.809296 
	C481.212494,286.412750 478.433228,285.632294 476.728363,283.811584 
	C472.944397,279.770447 472.102356,281.579926 469.919312,285.546844 
	C460.667419,302.358673 462.396698,320.224365 463.963898,338.119415 
	C465.311646,353.508942 470.732208,367.508820 479.102051,380.409515 
	C481.000336,383.335480 482.759705,385.666565 486.720886,382.226807 
	C489.094269,380.165833 492.227936,378.846710 494.805023,376.785706 
	C501.006104,371.826385 501.119110,370.303040 497.122711,363.540894 
	C491.242432,353.591125 485.112213,343.731323 482.517181,332.189087 
	C481.839783,329.176025 481.793335,326.198090 482.159637,323.321411 
	C482.542267,320.316528 484.512573,317.621033 487.612518,316.909271 
	C490.655792,316.210541 493.679718,317.154999 495.994202,319.494507 
	C501.879608,325.443512 505.475830,332.909760 508.552094,340.434753 
	C511.170959,346.841034 514.863159,353.032410 515.043213,360.300049 
	C515.105042,362.795258 517.156494,361.958252 518.433838,361.952667 
	C521.911987,361.937531 525.234070,362.189362 528.475586,363.780670 
	C530.835266,364.939117 531.806702,365.807800 529.548523,367.987762 
	C523.904297,373.436432 520.789185,380.461182 517.838135,387.514862 
	C515.342712,393.479523 510.459839,397.149933 505.562714,400.702576 
	C496.580994,407.218414 486.634064,412.363098 478.362915,419.907990 
	C473.541107,424.306458 468.058868,427.856995 463.993927,433.242096 
	C460.373260,438.038666 455.614136,441.990906 451.261292,446.216736 
	C441.168243,456.015320 432.788818,467.116119 426.210327,479.522247 
	C418.879486,493.347198 411.070801,506.948700 406.863251,522.228943 
	C404.038940,532.485718 401.519257,542.761963 401.046814,553.427490 
	C400.984772,554.828247 400.400970,555.941956 399.919464,557.587036 
	C399.610382,558.246216 399.407990,558.518860 399.152618,558.727600 
	C394.413361,562.600647 394.412109,562.599121 399.604248,566.749878 
	C397.713348,576.033264 399.793365,585.058228 400.115784,594.054688 
	C401.008392,618.963379 406.274292,642.977966 417.239868,665.473572 
	C424.434601,680.233276 434.245972,693.349915 444.572052,706.046936 
	C463.607117,729.452637 487.013458,746.917480 514.929443,758.582825 
	C529.596008,764.711487 544.702515,769.275513 560.249878,771.744324 
	C578.189697,774.593018 596.432495,776.325500 614.599243,774.812439 
	C629.890625,773.538818 644.541565,768.936829 659.011536,763.628784 
	C687.349976,753.233337 711.989990,737.474365 732.324036,715.146729 
	C753.536560,691.854431 769.474121,665.443726 778.382324,635.094360 
	C782.354736,621.560852 784.390747,607.710205 785.154114,593.531067 
	C786.676025,565.262512 781.257385,538.260925 771.994507,511.845306 
	C765.076721,492.117462 754.311157,474.437195 742.084534,457.605927 
	C734.660461,447.385925 725.429749,438.933807 716.151733,430.422333 
	C704.118591,419.383392 690.695190,410.405212 677.144043,401.492462 
	C674.107056,399.494995 672.409912,396.097595 670.949707,392.747467 
	C664.743347,378.508148 654.881653,366.746399 644.127014,355.996674 
	C636.018677,347.892059 632.782288,337.880249 629.147644,327.796051 
	C628.607666,326.297882 628.588684,324.336060 629.869995,322.597534 
	C638.315857,311.138489 646.353638,299.379486 655.794556,288.671692 
	C669.334167,273.315216 686.780945,263.923950 705.229980,256.064941 
	C709.222778,254.364059 712.971741,252.224731 717.147278,250.793472 
	C728.796509,246.800522 729.857117,249.909988 732.470886,258.398804 
	C736.348083,270.990417 741.865051,283.076141 744.489807,296.032501 
	C747.403259,310.413727 748.618958,324.820129 747.256775,339.629272 
	C745.934692,354.001862 741.807983,366.984283 734.444763,379.264191 
	C730.769409,385.393585 728.191650,392.171539 724.772278,398.468750 
	C723.421753,400.955841 724.373291,402.282104 726.078430,403.480072 
	C731.915894,407.581177 736.911377,412.603394 742.064026,417.487366 
	C751.205322,426.152069 759.365540,435.576111 765.765808,446.451080 
	C766.733459,448.095306 767.117920,449.974396 769.607849,447.933167 
	C783.390930,436.633850 799.513306,430.405090 816.557495,425.882202 
	C830.626648,422.148712 844.908997,421.222717 859.220398,422.159698 
	C874.104004,423.134125 888.375610,427.355682 901.999329,433.518066 
	C905.427856,435.068878 908.740845,436.875763 912.104065,438.570618 
	C920.642029,442.873077 921.960693,446.336273 919.052856,455.281769 
	C912.959717,474.026459 904.466064,491.657898 892.948669,507.569153 
	C880.244263,525.120422 864.580688,539.779053 844.219482,548.075378 
	C834.343018,552.099609 823.464050,553.395996 813.295410,556.901611 
	C810.727417,557.786926 810.211426,558.617249 810.627747,561.303711 
	C811.433167,566.501038 812.318909,571.869690 811.833679,577.041809 
	C811.025574,585.656494 811.405945,594.269531 810.837219,602.851257 
	C810.592163,606.548584 811.486511,607.838623 815.149353,608.067932 
	C822.254578,608.512756 828.711426,611.629578 835.146851,614.205444 
	C851.377502,620.702209 866.188904,629.529175 878.701477,642.088501 
	C894.273010,657.718201 904.785706,676.398071 912.985229,696.582336 
	C915.494568,702.759583 917.621643,709.092529 920.155396,715.259033 
	C921.405029,718.300293 920.134766,719.745789 917.644165,720.996155 
	C900.235657,729.735657 881.552002,734.520325 862.437683,736.755066 
	C841.260803,739.230957 820.307678,737.479980 800.274109,728.820496 
	C790.263855,724.493530 779.979309,720.842163 771.401428,713.857666 
	C769.164673,712.036377 768.117004,714.012756 767.509033,715.145203 
	C761.354919,726.608093 751.977783,735.362244 742.979431,744.392395 
	C739.169800,748.215393 734.847473,751.595093 730.434448,754.719055 
	C728.370178,756.180420 727.815063,756.543884 729.361694,759.073608 
	C734.964966,768.238403 740.404907,777.570435 743.038879,788.137268 
	C744.972656,795.894958 746.972290,803.629272 747.093018,811.751953 
	C747.161316,816.342712 747.975830,820.912781 748.067566,825.555603 
	C748.463074,845.576721 743.058228,864.311768 736.099976,882.786621 
	C733.385925,889.992554 729.914673,896.756470 725.939941,903.306702 
	C724.069885,906.388489 721.770325,907.127808 718.251282,905.729980 
	C699.594604,898.319214 681.453979,889.906860 665.195129,877.990479 
	C651.907593,868.251770 641.233459,856.129333 632.884216,841.838013 
	C626.752686,831.342651 622.964478,819.907227 618.392456,808.777832 
	C617.970703,807.751343 618.146179,806.492126 617.954102,805.356201 
	C617.482361,802.566284 615.870911,801.676025 613.053894,802.025452 
	C599.551086,803.700195 586.023010,803.549683 572.508972,802.140991 
	C568.371399,801.709717 567.962891,805.039673 567.331970,807.479370 
	C564.580994,818.117004 560.559631,828.222046 555.533752,837.965149 
	C544.708862,858.950012 528.865906,875.010986 508.653534,887.169861 
	C494.566833,895.643860 479.785278,902.176392 463.983063,906.568481 
	C460.774353,907.460266 458.714752,907.079102 457.260651,903.740967 
	C452.005280,891.676575 445.217072,880.239441 442.128113,867.294189 
	C440.002167,858.384705 437.476379,849.522583 437.984253,840.184998 
	C438.605225,828.767090 437.204346,817.331299 438.837555,805.887085 
	C440.436890,794.679749 445.247803,784.750549 449.737091,774.632874 
	C452.049805,769.420715 454.328766,764.192444 456.524353,758.930359 
	C457.138367,757.458740 457.583252,756.186584 455.617767,754.758179 
	C446.980255,748.480957 438.254608,742.264160 430.922668,734.400757 
	C425.010315,728.059875 419.142090,721.658386 415.348999,713.727661 
	C414.535339,712.026306 413.498260,711.102356 412.131989,712.747437 
	C403.348572,723.323547 390.920502,727.383362 378.733276,732.191467 
	C362.592621,738.559326 345.825165,738.771545 329.058777,737.804871 
	C316.709229,737.092773 304.457520,734.687927 292.163574,731.436035 
	C290.264923,728.500061 294.880280,727.791809 293.664185,725.107422 
	C290.763306,725.456299 291.805206,729.134399 289.278137,730.007263 
z"/>
<path fill="#FF0000" opacity="1.000000" stroke="none" 
	d="
M682.929688,720.002502 
	C675.497253,721.931152 668.230957,722.254150 661.104065,722.820129 
	C649.307678,723.756836 637.699097,725.515564 626.167725,728.001038 
	C614.866394,730.436829 603.401611,732.039124 592.184814,734.936035 
	C585.912964,736.555908 580.163086,740.539734 573.441162,739.898315 
	C568.294678,739.407288 563.124451,738.372375 558.165771,736.901611 
	C551.526367,734.932312 544.312561,734.995544 537.635071,731.176147 
	C542.178528,728.352905 546.176208,725.272095 550.644348,723.210999 
	C561.420898,718.239929 570.622070,710.276001 582.239014,706.921387 
	C594.402344,703.408997 605.994385,698.276672 618.165527,694.627502 
	C635.641785,689.388000 653.401672,685.465027 671.001892,680.832703 
	C674.171326,679.998535 678.596008,678.501648 678.557434,674.780090 
	C678.527100,671.857788 674.491455,671.181335 671.431091,670.780029 
	C664.483032,669.869019 657.743225,668.740479 650.499939,669.675537 
	C642.391541,670.722290 634.105652,670.541504 625.934326,671.914062 
	C615.628296,673.645203 605.487793,675.911438 595.499207,678.977234 
	C578.000610,684.347900 560.936340,690.860229 544.911377,699.692810 
	C532.132751,706.735962 518.688049,711.905151 504.966583,716.652771 
	C498.274261,718.968262 492.150665,717.434875 486.605957,714.645935 
	C469.727264,706.156250 468.363068,686.852722 477.489807,674.914246 
	C485.263184,664.746033 495.076050,657.374939 506.475586,651.829651 
	C517.645325,646.395996 528.926575,640.994995 539.061157,633.845520 
	C554.788025,622.750732 564.543640,607.919739 565.070374,587.887756 
	C565.359192,576.903198 562.268982,566.973877 557.698608,557.192566 
	C549.585205,539.828674 537.948120,524.469727 529.643860,507.227661 
	C523.576111,494.629028 520.376892,481.196259 518.030090,467.522552 
	C517.200073,462.686829 516.365173,457.816864 516.080078,452.930573 
	C515.597717,444.666016 517.226929,436.616333 519.697021,428.763580 
	C524.988647,411.940887 533.471436,396.749207 544.116638,382.804016 
	C549.797058,375.362640 555.608643,367.863647 562.355591,361.434326 
	C570.651489,353.528931 575.378113,343.935974 579.005798,333.471466 
	C581.787048,325.448700 585.109558,317.653717 588.978638,310.093323 
	C591.121033,305.907074 593.200500,305.812714 595.952209,309.774902 
	C600.790527,316.741699 605.115112,324.074097 607.512268,332.191376 
	C612.307251,348.427917 622.381775,361.486145 632.250305,374.666870 
	C641.262939,386.704437 650.795044,398.428772 657.789673,411.766876 
	C662.618591,420.975159 665.842651,430.876831 667.123474,441.425110 
	C668.409119,452.013428 668.876343,462.526306 665.849670,472.752045 
	C664.287109,478.031219 664.463440,484.051239 660.320068,488.452850 
	C662.644104,495.241486 655.369812,499.212891 655.389221,505.984192 
	C655.403442,510.952484 650.553650,516.067383 647.506226,520.885986 
	C639.552429,533.462952 632.953369,546.750549 626.432678,560.089294 
	C616.329590,580.756470 620.685364,600.448608 632.473145,618.333252 
	C640.875183,631.080994 654.480713,638.480408 668.235291,645.043762 
	C680.566040,650.927612 693.368103,656.181213 703.390259,665.939636 
	C710.145569,672.517212 714.445801,680.741943 715.691956,689.926941 
	C716.454895,695.550232 713.819336,700.975586 709.971191,705.597717 
	C702.981812,713.992737 693.824890,718.135376 682.929688,720.002502 
z"/>
<path fill="#FF0000" opacity="1.000000" stroke="none" 
	d="
M479.715607,978.196533 
	C474.724854,971.882202 469.735870,965.998901 465.321716,959.711975 
	C460.995056,953.549805 457.914124,946.656555 456.172852,939.293335 
	C455.449707,936.235596 456.323059,933.689819 459.387787,931.796814 
	C465.518463,928.010010 472.550934,926.378906 478.913971,923.161255 
	C480.979401,922.116943 482.412720,923.694702 483.430481,925.800171 
	C488.758698,936.822327 494.265472,947.640686 502.359253,957.128601 
	C510.636353,966.831482 520.167603,975.034851 529.992676,982.926636 
	C548.197144,997.549194 568.805298,1009.138916 584.901184,1026.426758 
	C587.369812,1029.078125 589.652954,1031.901489 592.088257,1034.585083 
	C593.745605,1036.411377 594.878540,1036.565674 596.569153,1034.086304 
	C605.505249,1020.981140 617.880249,1011.496643 630.212524,1001.789978 
	C644.524475,990.525269 660.292603,980.997131 672.469299,967.082458 
	C684.785706,953.008240 697.348511,939.139160 704.010437,921.203125 
	C704.737488,919.245972 705.968506,918.358948 707.772400,919.406006 
	C714.846680,923.512390 722.593872,926.113037 730.048218,929.338867 
	C733.461609,930.815979 733.300110,932.431458 732.376465,935.267212 
	C728.837219,946.132385 722.710266,955.511108 716.090576,964.665222 
	C706.406189,978.057373 696.089417,990.853333 683.172241,1001.338440 
	C670.466675,1011.651794 657.598572,1021.744019 644.329041,1031.335083 
	C628.041687,1043.107300 614.557068,1057.444336 605.179993,1075.407715 
	C603.903992,1077.852051 602.359253,1080.165283 600.828735,1082.465942 
	C594.491882,1091.991943 585.394043,1088.365234 581.591431,1081.215942 
	C576.764465,1072.140991 571.620667,1063.261841 565.559143,1054.893677 
	C559.928711,1047.120483 552.452026,1041.328247 545.337280,1035.249634 
	C532.892090,1024.617188 519.734070,1014.823730 507.050537,1004.463501 
	C500.798248,999.356323 494.823761,993.890320 488.946564,988.350037 
	C485.715088,985.303894 482.946381,981.766724 479.715607,978.196533 
z"/>
<path fill="#FF0000" opacity="1.000000" stroke="none" 
	d="
M1017.239746,673.249268 
	C1011.945435,679.225586 1007.593445,685.808960 1001.715454,690.466125 
	C988.877014,700.638123 977.444458,712.849976 962.012268,719.482849 
	C959.025513,720.766602 956.003113,721.992798 952.925903,723.035095 
	C946.739136,725.130554 944.353638,724.136719 942.168945,718.337097 
	C940.164001,713.014465 938.507263,707.561707 936.594299,702.202942 
	C935.706299,699.715393 935.511292,698.126221 938.700928,696.891418 
	C959.738159,688.747498 975.155334,673.500488 989.807678,656.965759 
	C1000.216431,645.219849 1007.554932,631.519043 1016.450867,618.828308 
	C1025.663086,605.686279 1036.599487,594.653015 1051.120728,586.474243 
	C1046.873413,583.324097 1042.606934,580.690613 1038.973511,577.365417 
	C1027.989868,567.313843 1019.836182,554.931702 1011.391724,542.820312 
	C1000.824524,527.664551 991.179260,511.862915 978.136536,498.516418 
	C967.775085,487.913605 955.323059,480.440186 942.602173,473.304810 
	C935.432312,469.283112 934.381104,467.468750 937.303162,459.496521 
	C938.868835,455.224792 940.908020,451.099365 943.036133,447.067688 
	C945.930176,441.585175 948.989929,440.815582 954.541687,443.217987 
	C969.729614,449.790100 982.304810,459.902161 994.627625,470.790710 
	C1007.217041,481.914764 1017.596252,494.850372 1027.285400,508.212280 
	C1037.141479,521.804565 1046.208008,535.988220 1056.624146,549.204773 
	C1064.839478,559.628967 1075.461914,567.126404 1086.670288,573.889343 
	C1088.200684,574.812744 1089.788940,575.611267 1091.294800,576.624268 
	C1101.943237,583.786987 1098.697876,592.240540 1089.876099,596.926880 
	C1079.264893,602.563721 1069.022583,608.927856 1060.615234,617.298462 
	C1052.406128,625.471558 1044.742554,634.437317 1038.409668,644.270569 
	C1032.503662,653.441040 1026.000244,662.127380 1019.040894,670.500244 
	C1018.422852,671.243774 1018.002258,672.151367 1017.239746,673.249268 
z"/>
<path fill="#FF0000" opacity="1.000000" stroke="none" 
	d="
M144.655396,592.275940 
	C150.922211,597.436279 157.174591,601.997498 162.468445,607.797241 
	C171.683533,617.893005 178.893982,629.434692 186.726196,640.508118 
	C200.105850,659.424561 215.632019,676.075867 234.977020,688.989197 
	C238.090225,691.067322 241.307495,692.992432 244.383789,695.122375 
	C248.316498,697.845337 250.190063,701.377258 247.923050,706.102783 
	C245.470856,711.214233 244.008331,716.761230 240.948914,721.610779 
	C239.650345,723.669312 238.454895,724.522217 235.813889,723.473816 
	C222.415192,718.154541 210.018936,711.214355 199.168182,701.654968 
	C195.700302,698.599854 192.296188,695.472168 188.870575,692.369202 
	C173.992325,678.892334 162.440353,662.639832 151.164978,646.260864 
	C141.278824,631.899902 130.157913,618.786194 115.956009,608.682495 
	C108.412109,603.315491 100.222618,598.706909 91.894547,594.635620 
	C84.474228,591.007935 86.267197,583.230530 91.176743,579.005493 
	C92.880150,577.539551 94.802116,576.424438 96.899971,575.392883 
	C108.214027,569.829346 117.696342,561.574280 126.460533,552.771240 
	C135.463821,543.728027 141.902756,532.537781 149.011551,521.958374 
	C160.315857,505.135162 172.387253,488.923431 187.390533,475.148254 
	C199.977020,463.591980 214.090271,454.139343 228.837448,445.584747 
	C231.796692,443.868164 234.693756,442.013580 237.456909,439.999573 
	C239.670914,438.385803 240.946823,438.834564 242.052292,441.193512 
	C245.735596,449.053070 247.387604,457.560669 249.950150,465.775879 
	C250.493774,467.518677 249.729294,468.769653 247.896225,469.627075 
	C233.397491,476.408875 220.827820,485.997131 209.493851,497.132538 
	C197.751083,508.669495 187.252243,521.289307 179.072021,535.680847 
	C171.884995,548.325012 163.530502,560.120483 153.631287,570.791992 
	C148.244781,576.598694 142.094589,581.475830 135.082550,585.599243 
	C138.234726,587.799805 141.293976,589.935486 144.655396,592.275940 
z"/>
<path fill="#FF0000" opacity="1.000000" stroke="none" 
	d="
M827.163391,946.000000 
	C803.700623,948.605225 781.943848,942.438843 760.182678,936.548584 
	C754.045227,934.887329 748.368774,931.857788 742.749329,928.886597 
	C740.627014,927.764404 739.127747,926.254517 740.865112,923.291016 
	C744.054443,917.851135 746.864441,912.186340 749.763123,906.579407 
	C751.934509,902.379211 755.026978,901.103455 759.481689,902.983765 
	C771.071838,907.875793 783.087280,911.252258 795.522888,913.262634 
	C814.383301,916.311646 833.108948,918.881592 852.327454,915.210327 
	C869.364380,911.955872 886.405518,908.043396 904.019592,908.924683 
	C910.092834,909.228516 915.895813,911.758179 922.567139,910.787842 
	C920.550476,902.611328 920.609924,894.281555 921.105286,886.030701 
	C921.742310,875.419861 922.367493,864.798157 924.685486,854.313782 
	C926.129150,847.784180 925.856934,840.888977 927.096252,834.297180 
	C928.880798,824.805420 927.788940,815.216797 928.616333,805.681702 
	C929.219604,798.728455 927.076111,791.456238 925.659180,784.426636 
	C923.369995,773.070129 919.534851,762.159363 914.826660,751.589050 
	C913.640137,748.925110 913.923218,747.927795 916.746033,746.886841 
	C922.242798,744.859985 927.571350,742.369873 932.940491,740.005676 
	C937.132446,738.159729 941.271606,739.214050 943.727112,743.269958 
	C948.264832,750.765137 949.991760,759.307556 951.896851,767.669006 
	C954.846924,780.616455 956.235901,793.784363 957.242615,807.065857 
	C958.061340,817.867126 957.927856,828.614258 957.899597,839.373230 
	C957.871216,850.201111 955.067261,860.857300 954.501465,871.595459 
	C954.003052,881.055115 952.966309,890.499817 953.534119,900.168152 
	C954.305054,913.296692 957.341614,925.621277 960.824036,938.086121 
	C962.949219,945.692993 956.036621,951.270081 948.338501,949.156555 
	C936.577637,945.927551 924.851929,942.165161 912.851074,940.342407 
	C902.957458,938.839661 892.624756,939.344910 882.652832,941.258423 
	C873.630005,942.989746 864.505249,943.909485 855.419312,944.823975 
	C846.226868,945.749268 836.943604,946.633179 827.163391,946.000000 
z"/>
<path fill="#FF0000" opacity="1.000000" stroke="none" 
	d="
M327.244019,942.624146 
	C314.887543,941.888916 302.789886,940.598938 290.659546,940.093811 
	C277.617584,939.550781 265.017456,942.770752 252.496277,946.027039 
	C249.354309,946.844116 246.218063,947.773743 243.200256,948.959717 
	C235.976410,951.798706 227.331177,946.350769 230.227722,936.798767 
	C234.995667,921.075378 235.557053,905.013977 234.883804,888.869934 
	C234.529907,880.383728 233.479050,871.848145 231.822876,863.517761 
	C230.310394,855.910034 229.684326,848.195923 229.250092,840.591797 
	C228.542496,828.200928 227.236984,815.776855 228.007462,803.321899 
	C229.133408,785.120667 232.287109,767.370789 239.764114,750.574951 
	C241.284821,747.158875 242.862915,743.714050 243.833862,740.125427 
	C244.559067,737.444946 245.640594,737.191284 247.980988,737.918945 
	C255.778824,740.343628 263.031647,744.061707 270.505920,747.247864 
	C272.726776,748.194641 272.535187,749.789368 271.606110,751.982971 
	C265.013489,767.548645 261.024658,783.713623 259.832123,800.666687 
	C259.367096,807.277893 259.135620,813.862427 258.990601,820.471008 
	C258.722015,832.710205 261.395813,844.609192 263.401917,856.553284 
	C264.279480,861.778259 264.287354,867.045105 264.736511,872.232361 
	C265.763397,884.092651 266.607391,896.039917 265.999512,907.994385 
	C265.854370,910.849182 265.737244,912.028442 269.935669,911.348145 
	C280.800323,909.587646 291.809662,910.569702 302.789429,911.778809 
	C311.427917,912.730042 320.031616,913.965027 328.662476,914.844299 
	C337.986816,915.794189 347.311218,917.502869 356.732483,916.960693 
	C373.243896,916.010498 389.522400,913.667175 405.554169,909.321899 
	C413.869019,907.068237 422.100098,904.583069 430.204712,901.756836 
	C433.523865,900.599304 434.760864,901.754578 436.025635,904.157471 
	C439.143341,910.080566 441.845886,916.155823 444.147247,922.473694 
	C445.774048,926.939697 443.782745,929.256958 440.540863,930.625549 
	C434.718109,933.083557 428.681793,935.092407 422.626373,936.932373 
	C400.382599,943.691040 377.582001,946.318726 354.422638,944.857788 
	C347.244263,944.404907 339.953278,944.594055 332.428467,942.902771 
	C330.609955,941.469421 329.141968,940.941895 327.244019,942.624146 
z"/>
<path fill="#FF0000" opacity="1.000000" stroke="none" 
	d="
M762.111816,260.869995 
	C757.720581,265.588165 757.131592,265.579956 754.433105,259.832520 
	C751.464844,253.510468 749.006714,246.937912 745.823425,240.732498 
	C744.280090,237.724106 745.725830,236.796051 747.833740,236.080856 
	C754.430115,233.842789 761.051453,231.661148 767.732483,229.693130 
	C778.972717,226.382065 790.304382,223.449173 802.556519,223.097687 
	C805.996826,225.566086 808.800659,224.968094 811.746094,222.393250 
	C828.669067,219.748749 845.012512,223.124069 861.436401,224.977341 
	C876.288513,226.653259 890.966980,229.602509 906.084229,229.153397 
	C917.354553,228.818558 928.223389,227.139297 938.831177,223.543777 
	C941.829407,222.527542 944.785156,221.619019 947.961182,222.013870 
	C956.513000,223.077042 959.558472,226.353195 959.101440,233.317505 
	C958.820679,237.596481 958.534241,241.694366 957.100647,245.842361 
	C953.827637,255.312805 953.831238,265.224152 953.965332,275.137665 
	C954.166382,290.000763 953.642334,304.738373 956.581177,319.624115 
	C958.884277,331.289856 959.558655,343.590790 958.902466,355.651306 
	C958.155457,369.380280 957.748840,383.296082 953.744507,396.518646 
	C951.752808,403.095337 951.503906,410.607544 946.126709,415.980591 
	C945.507690,416.599121 944.935852,417.973083 945.206665,418.651917 
	C946.396973,421.635956 945.152100,423.615997 942.984680,425.384644 
	C941.243530,422.804810 938.142273,425.932007 935.455933,423.017914 
	C933.205444,420.576599 927.794189,420.488190 923.845825,419.080688 
	C915.753357,416.195862 915.187866,414.050842 917.865967,406.020996 
	C923.222046,389.961578 930.153198,373.909943 928.734558,356.642609 
	C927.517944,341.834869 926.515564,326.898651 923.526245,312.277222 
	C922.695374,308.213287 922.533936,304.049286 922.278809,300.074310 
	C921.439636,286.998718 920.424805,273.803741 923.158264,260.781006 
	C923.575378,258.793671 923.334961,257.825104 921.227112,258.332581 
	C912.952759,260.324524 904.537964,260.036469 896.140625,259.990448 
	C879.342041,259.898315 862.881653,257.070404 846.354065,254.347977 
	C831.770874,251.945831 817.107483,251.493423 802.190552,253.615921 
	C788.758850,255.527084 775.762573,258.931793 762.563538,261.435120 
	C762.848755,260.316986 762.817017,259.350433 762.020142,259.282166 
	C761.397522,259.228790 761.715637,260.203583 762.111816,260.869995 
z"/>
<path fill="#FF0000" opacity="1.000000" stroke="none" 
	d="
M239.946747,222.000183 
	C246.244034,222.003174 251.348145,225.002930 256.944275,226.140488 
	C269.437927,228.680084 281.832214,229.232864 294.642426,228.306946 
	C310.894653,227.132233 326.928192,224.235397 343.284180,223.581345 
	C355.736176,223.083405 368.099304,223.345612 380.389435,224.206879 
	C399.919647,225.575546 419.235565,228.751038 437.137756,237.541443 
	C439.703552,238.801331 440.647430,239.981720 439.092316,242.836868 
	C435.515381,249.403976 432.139008,256.087830 429.909546,263.276550 
	C428.988068,266.247833 427.202820,266.351685 424.691284,264.956329 
	C412.954498,258.435822 399.913544,256.278351 386.940674,254.049667 
	C378.992188,252.684174 370.942322,251.809113 362.857025,252.034698 
	C351.523071,252.350937 340.352112,254.326965 329.275543,256.465942 
	C310.303009,260.129669 291.182709,260.272675 272.013977,259.922485 
	C268.846039,259.864624 264.720367,256.958618 262.830994,258.647339 
	C260.622070,260.621704 263.903137,264.484100 264.040558,267.690399 
	C264.423340,276.621857 265.416534,285.526306 265.009369,294.490479 
	C264.502441,305.649780 261.930267,316.537201 260.730377,327.602661 
	C259.307892,340.720978 258.307098,353.780365 259.677612,367.063629 
	C260.378052,373.852295 261.151093,380.462891 262.821045,387.094421 
	C264.573761,394.054565 266.578247,400.907623 269.242340,407.536285 
	C272.939026,416.734222 273.148193,416.942474 263.561218,419.048584 
	C258.197205,420.226990 253.600082,422.884155 248.804459,425.165070 
	C246.416199,426.300964 245.281677,425.973724 244.267197,423.690796 
	C238.245071,410.138977 233.129303,396.350739 230.923477,381.543976 
	C228.677750,366.469208 227.567810,351.355499 228.045212,336.145721 
	C228.379852,325.483948 230.049652,314.955658 231.734146,304.421082 
	C235.222717,282.604065 235.141495,260.922089 228.926773,239.445908 
	C226.554123,231.246765 227.553635,226.764511 233.318832,223.028427 
	C235.435303,221.656845 237.447693,222.296112 239.946747,222.000183 
z"/>
<path fill="#FF0000" opacity="1.000000" stroke="none" 
	d="
M533.280518,179.224991 
	C524.793945,186.589371 515.919617,192.963272 508.506500,200.996826 
	C500.167877,210.033371 492.412170,219.469589 487.027924,230.675156 
	C482.558289,239.977341 482.523315,239.764252 473.960876,234.583603 
	C469.400085,231.824127 464.751404,229.018753 459.375153,227.986938 
	C456.838409,227.500076 456.984863,225.638992 457.001099,223.783859 
	C457.062073,216.804031 461.461975,211.627060 464.610596,206.000381 
	C470.550018,195.386490 478.680237,186.266998 487.103394,177.754257 
	C499.697021,165.026642 513.534668,153.601761 527.955566,142.829712 
	C543.045288,131.558060 558.691345,120.888115 572.077515,107.446106 
	C577.671570,101.828743 581.805237,95.096252 586.564941,88.845131 
	C589.571106,84.896996 596.255981,84.566078 598.893188,88.718117 
	C604.017456,96.785835 609.756348,104.331055 616.555298,111.063148 
	C629.208923,123.592354 644.093506,133.270432 658.378784,143.698700 
	C673.006653,154.376968 687.594666,165.146469 699.860352,178.532471 
	C709.988220,189.585373 718.332031,202.053406 725.596863,215.192917 
	C726.456055,216.746902 727.104797,218.461990 727.574585,220.178085 
	C728.987976,225.341797 727.996765,226.510544 723.010071,228.080994 
	C718.087158,229.631378 713.263733,231.610916 708.592896,233.817505 
	C703.583862,236.183838 700.580933,234.203751 697.985779,230.061905 
	C694.699463,224.816864 691.583435,219.407898 687.768616,214.561920 
	C676.303284,199.997391 663.590149,186.687302 648.257812,176.004868 
	C631.459534,164.300980 614.673340,152.564560 599.755981,138.395111 
	C597.066772,135.840698 595.718079,130.476196 592.561218,130.702652 
	C589.958679,130.889359 587.815674,135.702667 585.231384,138.221909 
	C571.914734,151.203690 556.667358,161.797012 541.917603,173.002502 
	C539.188965,175.075470 536.337891,176.987320 533.280518,179.224991 
z"/>
<path fill="#FF0000" opacity="1.000000" stroke="none" 
	d="
M755.267456,759.638306 
	C754.488403,757.789185 753.968079,756.246155 753.323486,754.756836 
	C750.106262,747.324402 750.259888,747.484375 755.781311,741.604614 
	C759.580261,737.559082 764.082092,738.293579 768.104309,739.751770 
	C783.395264,745.295471 798.656677,750.907837 814.068542,756.120117 
	C822.286377,758.899353 830.817322,760.133972 839.247375,761.805481 
	C841.872192,762.325928 842.960266,763.580261 843.839050,765.521423 
	C849.042175,777.015137 852.214966,789.057373 854.075989,801.541260 
	C855.878052,813.630127 854.695374,825.731384 854.917664,837.820740 
	C855.059387,845.530029 853.237793,847.090149 845.499023,846.952087 
	C840.353210,846.860291 835.394104,848.458008 830.202942,848.053833 
	C818.289246,847.126282 806.259338,846.440613 795.129028,841.826050 
	C786.043945,838.059509 778.381592,831.699707 771.230774,825.041565 
	C769.442383,823.376343 769.090881,819.522766 769.103394,816.679382 
	C769.159546,803.907715 765.676025,791.790466 762.852051,779.532532 
	C761.269775,772.664551 758.784241,766.167847 755.267456,759.638306 
z"/>
<path fill="#FF0000" opacity="1.000000" stroke="none" 
	d="
M898.000000,880.838928 
	C897.977661,888.208923 898.007568,887.598877 890.779114,887.244690 
	C884.970276,886.960144 879.061829,888.272766 873.225830,889.080200 
	C864.488403,890.289124 855.803345,891.914429 847.045898,892.930786 
	C834.740906,894.358887 822.402954,895.514282 809.971619,895.016418 
	C793.499146,894.356750 777.705444,890.477600 762.309448,884.894226 
	C758.181702,883.397339 758.290710,879.428772 759.527283,876.096008 
	C761.680176,870.293762 763.757385,864.504272 765.285461,858.490356 
	C767.127686,851.240173 770.554504,849.727783 777.140198,853.719421 
	C787.019653,859.707581 797.726868,863.336060 808.750793,866.412598 
	C824.117676,870.701172 839.329224,869.412903 854.322449,865.117798 
	C858.517883,863.915894 862.751404,864.619202 866.887878,863.247864 
	C869.454407,862.397034 870.444336,860.828308 870.892334,858.844910 
	C874.732239,841.845825 877.957153,824.795898 877.071777,807.183289 
	C876.391357,793.647949 873.769165,780.686157 868.120483,768.336731 
	C865.552368,762.722229 867.519165,758.805786 873.539429,758.111572 
	C878.472107,757.542908 883.395996,756.364258 887.660767,754.404846 
	C893.076477,751.916504 894.550659,755.051758 895.904358,758.438293 
	C899.295227,766.920898 901.279114,775.860779 902.907471,784.809204 
	C905.330566,798.124573 906.062073,811.588928 906.151184,825.157104 
	C906.233521,837.686951 902.670288,849.397034 899.803162,861.280090 
	C898.272766,867.622742 897.900085,873.938049 898.000000,880.838928 
z"/>
<path fill="#FF0000" opacity="1.000000" stroke="none" 
	d="
M416.555420,823.904175 
	C409.694885,834.500488 399.731506,840.008362 388.361023,842.883911 
	C374.253082,846.451904 359.818359,847.790833 345.245422,846.976013 
	C341.973816,846.793030 338.718689,846.311584 335.456940,845.958374 
	C333.580872,845.755188 333.077454,844.538879 332.991791,842.834106 
	C332.353577,830.131714 331.578430,817.435669 331.024017,804.729858 
	C330.387939,790.152832 335.871155,777.306519 342.647095,764.856018 
	C344.718872,761.049255 348.119904,759.559509 352.183014,758.995117 
	C366.741150,756.972534 380.858582,753.204224 394.847351,748.718689 
	C403.048920,746.088928 410.934357,742.767883 418.943207,739.696106 
	C422.727112,738.244751 426.934540,737.776489 430.265320,741.676453 
	C432.962158,744.834106 435.508240,748.380005 433.642487,752.277039 
	C431.528992,756.691589 430.379761,761.460022 428.045227,765.739990 
	C421.655518,777.454529 420.708344,790.611389 417.931183,803.300354 
	C416.452515,810.056458 417.485596,816.847046 416.555420,823.904175 
z"/>
<path fill="#FF0000" opacity="1.000000" stroke="none" 
	d="
M424.944519,880.760864 
	C420.622589,885.359436 414.663849,885.827759 409.415894,887.629578 
	C401.149689,890.467651 392.724945,893.004578 384.061157,894.576721 
	C382.397522,894.878662 380.784058,894.959229 379.145050,894.985474 
	C363.916931,895.229309 348.682190,895.255432 333.582947,892.955933 
	C321.162750,891.064453 308.825195,888.622070 296.395020,886.807739 
	C290.263824,885.912842 289.091705,881.681763 289.101715,876.970215 
	C289.125397,865.839783 285.145874,855.492859 283.441162,844.721863 
	C282.419952,838.269226 280.996521,831.898621 280.820526,825.243286 
	C280.607635,817.192810 280.322876,809.236389 280.783600,801.134888 
	C281.730194,784.488953 286.321167,769.148987 293.908661,754.473816 
	C294.981506,752.398682 296.308258,752.853699 297.470551,753.273010 
	C304.375092,755.763794 311.426300,757.644531 318.621643,759.070557 
	C321.320038,759.605347 321.038727,761.208679 320.273285,763.548340 
	C317.197388,772.950684 313.407562,782.140625 311.526978,791.915161 
	C309.034515,804.870239 309.357910,817.857544 311.445282,830.786499 
	C313.027435,840.586426 315.330444,850.270264 316.904053,860.071350 
	C317.451660,863.482300 320.199280,863.576050 321.938293,863.765381 
	C334.645355,865.148743 347.124329,868.232178 360.052826,868.099365 
	C377.032196,867.924988 392.862793,863.565674 408.486115,857.320251 
	C421.203827,852.236389 417.853668,851.797791 420.993011,864.283264 
	C422.338745,869.635315 423.644318,874.997437 424.944519,880.760864 
z"/>
<path fill="#FF0000" opacity="1.000000" stroke="none" 
	d="
M996.711304,611.697998 
	C987.773865,626.414795 979.629517,641.291809 967.298157,653.081238 
	C956.795776,663.121948 945.887878,672.734436 932.166687,678.376587 
	C929.352295,679.533875 927.738464,679.389282 926.280457,675.977295 
	C924.051086,670.760254 920.829468,665.964966 917.996277,661.009338 
	C916.775818,658.874573 916.929382,657.756287 919.157166,655.811340 
	C937.055847,640.185242 955.612671,625.040649 966.348022,603.037964 
	C969.070679,597.457703 972.542236,592.361694 975.539429,586.969177 
	C976.771179,584.753052 977.462524,582.733093 976.080261,580.078369 
	C968.756592,566.012878 961.676697,551.662048 950.991638,539.887695 
	C944.600220,532.844788 937.122925,526.557007 929.198059,521.016602 
	C925.585815,518.491272 922.103516,515.776367 918.615356,513.078857 
	C917.396973,512.136597 916.239868,510.832153 917.380981,509.261719 
	C921.819641,503.153259 923.671631,495.609924 928.538757,489.682556 
	C930.138184,487.734802 931.270691,487.684143 933.007263,488.559387 
	C942.202026,493.193787 951.514343,498.121613 958.552551,505.500854 
	C970.349182,517.869141 981.581177,530.834839 990.387695,545.705017 
	C997.247559,557.288208 1004.816284,568.426575 1014.464966,577.981934 
	C1019.269775,582.740173 1019.241882,585.170959 1014.449158,589.828003 
	C1007.756470,596.331116 1001.627686,603.280945 996.711304,611.697998 
z"/>
<path fill="#FF0000" opacity="1.000000" stroke="none" 
	d="
M392.833984,308.037201 
	C376.019806,303.179840 359.626251,300.728302 342.599670,305.525848 
	C335.115143,307.634796 327.125122,308.038025 319.329712,308.900330 
	C317.086853,309.148438 316.466705,310.510040 316.118805,311.980713 
	C313.520813,322.962494 311.749725,334.007050 310.651306,345.318848 
	C309.259338,359.653534 311.151978,373.106903 316.145935,386.241669 
	C317.575653,390.002014 317.426910,393.658234 317.858307,397.359985 
	C318.056000,399.055969 317.133575,400.447632 314.910614,401.164398 
	C308.268311,403.306152 301.460724,405.080597 295.237305,408.361694 
	C292.682892,409.708405 291.957092,407.553741 291.101074,406.213959 
	C287.180756,400.078339 285.281311,393.007416 284.208405,386.066406 
	C282.122223,372.570526 280.594910,358.974518 280.880341,345.203369 
	C281.096710,334.766052 283.384094,324.728577 285.208954,314.588348 
	C286.861542,305.405365 289.365631,296.335632 288.937500,286.905762 
	C288.790375,283.665497 289.882355,281.942657 293.047180,281.436157 
	C295.786530,280.997742 298.534698,279.975861 301.242371,280.088928 
	C312.876251,280.574799 324.028656,277.362976 335.390015,275.872437 
	C348.937042,274.095123 362.332031,272.046051 376.111450,273.885071 
	C389.754547,275.705902 403.064240,278.332733 415.761658,283.842377 
	C418.289978,284.939453 419.577271,287.199677 421.825104,288.419189 
	C422.507874,288.789642 422.619904,289.365204 422.173981,290.403839 
	C418.729004,298.427917 417.147858,306.887390 417.035065,315.596313 
	C416.996002,318.612366 415.588745,319.225677 413.447845,317.723999 
	C407.234863,313.366150 400.304688,310.605865 392.833984,308.037201 
z"/>
<path fill="#FF0000" opacity="1.000000" stroke="none" 
	d="
M825.017822,303.000000 
	C806.871277,303.028564 790.465820,308.248535 774.350464,314.843231 
	C772.364868,315.655762 771.391785,318.924103 769.026978,317.747894 
	C766.814453,316.647461 768.387085,313.871857 767.937073,311.887970 
	C766.282410,304.593842 764.630432,297.298187 763.092773,289.978882 
	C762.526794,287.284546 763.274963,285.088043 766.174988,284.028870 
	C778.297363,279.601379 790.777710,276.841766 803.529358,274.788361 
	C810.254211,273.705505 816.967712,274.201813 823.683533,273.343842 
	C830.017395,272.534668 836.721741,274.207489 843.212463,275.140778 
	C853.392151,276.604401 863.514526,278.464386 873.689880,279.961761 
	C880.016113,280.892761 886.291626,282.418762 892.771179,282.017700 
	C895.111450,281.872864 895.758606,283.181213 896.052673,285.381592 
	C898.046997,300.300995 900.051208,315.225952 902.202209,330.115723 
	C904.359802,345.051239 904.205261,359.957642 903.869141,374.887634 
	C903.688965,382.887939 901.280579,390.664459 897.911377,397.951508 
	C896.432495,401.150208 897.306335,405.682739 893.700500,407.520630 
	C890.188110,409.310913 887.411255,405.341949 884.065369,405.114410 
	C878.820129,404.757751 873.872314,402.544922 868.498047,402.940796 
	C865.367920,403.171356 864.670776,401.796478 865.642456,398.557526 
	C868.490967,389.063049 872.145264,379.834320 874.194458,370.058960 
	C875.946045,361.702698 876.218994,353.359741 875.923950,344.960114 
	C875.697327,338.504120 875.862976,332.052704 875.192871,325.569733 
	C874.579163,319.632782 872.401428,314.516144 869.732239,309.493835 
	C868.165894,306.546631 864.432800,306.305847 861.867920,306.245911 
	C849.660339,305.960632 837.839539,301.552338 825.017822,303.000000 
z"/>
<path fill="#FF0000" opacity="1.000000" stroke="none" 
	d="
M607.283936,993.218079 
	C603.706726,997.437134 599.204529,999.986389 595.201843,1003.115295 
	C592.543579,1005.193298 589.207397,1004.456665 587.015686,1002.354614 
	C573.643433,989.528870 558.159302,979.389954 543.489014,968.262085 
	C526.762268,955.574341 515.278015,938.713135 503.514435,921.942932 
	C500.781708,918.047180 502.164062,914.043640 506.575256,911.749878 
	C510.171783,909.879761 513.711853,907.900269 517.264404,905.946533 
	C526.126831,901.072693 529.068481,901.728516 532.796692,910.683899 
	C538.843628,925.208740 549.620239,935.470581 561.370911,945.353516 
	C569.497131,952.188110 578.981140,956.634460 587.470154,962.729187 
	C590.177429,964.672913 593.264954,965.492554 596.563477,963.765442 
	C609.188660,957.154907 621.686401,950.170776 631.998169,940.282654 
	C643.083374,929.653015 651.897095,917.204834 657.195374,902.554871 
	C657.856018,900.728210 658.660278,899.527466 661.032959,900.952026 
	C667.752686,904.986511 674.656006,908.674805 681.972839,911.584595 
	C685.013306,912.793701 685.698914,915.037659 684.002136,918.236938 
	C675.506531,934.255859 664.261719,948.070496 651.085205,960.441284 
	C642.024902,968.947693 632.196716,976.428040 621.575134,982.804932 
	C616.573303,985.807861 611.889954,989.125549 607.283936,993.218079 
z"/>
<path fill="#FF0000" opacity="1.000000" stroke="none" 
	d="
M249.762909,641.263428 
	C252.908218,644.722534 256.544159,647.032776 260.063385,649.407104 
	C262.371155,650.964111 264.768280,652.278259 266.839478,654.245056 
	C270.666595,657.879150 265.472015,658.877563 264.720947,660.864319 
	C262.341278,667.159180 260.142731,673.687378 255.969742,679.186829 
	C255.170273,680.240417 254.561432,681.715149 252.927200,680.382141 
	C242.502396,671.878662 231.748444,663.875854 222.720505,653.642151 
	C208.573486,637.605652 197.250214,619.585571 184.960403,602.250000 
	C180.719208,596.267517 175.980301,590.748047 171.448288,585.036377 
	C170.142593,583.390808 169.278839,582.119263 171.114166,580.391174 
	C184.018188,568.241272 192.303131,552.814453 201.599014,538.034302 
	C213.702896,518.789551 229.641266,503.147888 248.931641,491.001404 
	C250.580826,489.962952 252.837158,489.118866 253.600937,487.582642 
	C256.334778,482.084076 257.872559,486.953613 258.546600,488.348175 
	C261.810181,495.100525 264.048370,502.364777 269.396759,507.995117 
	C270.725006,509.393433 269.747528,510.246979 268.328583,511.411346 
	C262.245209,516.403320 255.371307,520.271484 249.557602,525.715820 
	C241.483002,533.277588 234.220413,541.472351 228.200150,550.648621 
	C221.780243,560.434143 216.113770,570.712158 210.024475,580.717957 
	C208.765472,582.786743 209.487473,584.348877 210.567917,586.058105 
	C218.584061,598.739258 226.425934,611.534302 234.652603,624.077087 
	C238.779984,630.369873 243.962982,635.887024 249.762909,641.263428 
z"/>
<path fill="#FF0000" opacity="1.000000" stroke="none" 
	d="
M541.000732,242.980835 
	C538.378845,247.330841 535.507812,251.157761 533.396484,255.365845 
	C532.054443,258.040619 529.401794,259.101044 527.849976,261.370636 
	C526.998047,262.616577 525.968018,261.633850 525.339600,261.027771 
	C521.439880,257.266815 516.321411,255.432816 511.951599,252.425705 
	C507.397644,249.291855 505.859619,242.706314 508.635834,237.902023 
	C519.479553,219.136780 533.807068,203.751419 551.214600,190.662094 
	C563.357300,181.531555 576.317627,173.320328 587.152466,162.440521 
	C590.383728,159.195816 594.107117,158.650604 597.976685,162.354523 
	C611.806702,175.592392 628.501221,185.122635 643.338562,197.070679 
	C657.579651,208.538589 669.432495,222.017059 678.014343,238.225388 
	C681.355774,244.536194 681.134277,244.461884 675.202393,248.434738 
	C669.772827,252.071152 663.886902,254.831512 658.192932,257.961609 
	C656.175415,259.070740 655.252258,259.018311 653.832520,256.460449 
	C649.327576,248.344238 644.021606,240.716888 638.095886,233.499207 
	C629.658997,223.223038 619.940063,214.517609 608.383301,207.971481 
	C603.859741,205.409134 599.065735,203.300446 594.299133,201.202652 
	C592.398010,200.365936 590.344482,201.052063 588.649170,202.156937 
	C574.643860,211.284439 560.010254,219.564743 548.886414,232.515518 
	C546.095947,235.764267 543.325012,238.976822 541.000732,242.980835 
z"/>
<path fill="#FF0000" opacity="1.000000" stroke="none" 
	d="
M294.178589,623.300903 
	C289.428772,627.085632 286.277496,631.960144 281.515411,635.337158 
	C278.545074,637.443604 276.388123,637.143860 273.989655,635.417847 
	C264.252045,628.410461 255.237823,620.919312 248.473831,610.534912 
	C243.590134,603.037292 238.996399,595.388855 234.359558,587.755188 
	C231.868240,583.653687 233.025116,579.650330 234.804123,575.583191 
	C239.405090,565.064575 246.894867,556.777832 255.298065,549.314514 
	C262.400757,543.006287 270.209778,537.483582 277.196655,531.059082 
	C280.480804,528.039307 282.834198,529.018860 285.272614,531.144104 
	C290.826324,535.984558 296.417480,540.830200 301.521362,546.128601 
	C312.228882,557.244141 325.701080,563.818420 339.472229,569.928467 
	C342.410828,571.232300 345.593597,572.257935 348.501556,573.505188 
	C352.606049,575.265686 354.276978,579.510010 354.015198,584.212646 
	C353.796112,588.148987 351.916077,590.442078 348.050659,591.539001 
	C341.650940,593.355225 335.162445,595.057190 329.035461,597.590942 
	C318.853821,601.801575 309.816986,607.965698 301.867432,615.643799 
	C299.352844,618.072632 296.909271,620.574951 294.178589,623.300903 
z"/>
<path fill="#FF0000" opacity="1.000000" stroke="none" 
	d="
M897.265381,536.236084 
	C903.895935,528.301270 905.690735,529.834900 917.198730,536.733826 
	C934.626770,547.181763 944.635925,563.903687 954.447144,580.816956 
	C955.880554,583.287964 955.716797,585.166626 954.224487,587.450806 
	C947.983032,597.003906 942.592163,607.181213 934.782104,615.597473 
	C928.492126,622.375793 920.954956,627.622375 912.373718,631.247375 
	C908.825562,628.369629 905.766724,635.686218 901.855591,631.568237 
	C898.952759,628.511841 895.235718,626.244263 892.004517,623.481262 
	C879.436707,612.734436 866.690186,602.225891 851.078369,596.090698 
	C846.578674,594.322327 841.786316,592.348267 837.093018,592.255981 
	C830.777588,592.131836 830.007751,588.172363 829.078796,583.821960 
	C828.134644,579.400391 830.279358,576.551392 834.036926,574.424561 
	C838.938416,571.650269 844.381287,570.464722 849.691467,569.066833 
	C861.508667,565.955994 870.480408,558.404907 879.579041,550.932922 
	C885.410217,546.144165 891.706787,541.918457 897.265381,536.236084 
z"/>
<path fill="#FF0000" opacity="1.000000" stroke="none" 
	d="
M853.998779,361.839233 
	C852.241760,374.662598 849.097656,386.543243 842.010132,397.085571 
	C840.838501,398.828308 839.660706,399.979401 837.324951,400.048767 
	C825.650513,400.395599 814.651855,404.177094 803.379089,406.684723 
	C791.158813,409.403198 779.831055,413.966400 769.025452,420.044159 
	C766.654907,421.377472 765.044250,421.003357 763.502441,418.997284 
	C759.906860,414.318451 755.786560,410.118164 751.519592,406.064514 
	C749.959412,404.582275 750.211182,403.331848 750.749756,401.291565 
	C752.156372,395.963074 755.489624,391.661957 757.804688,386.861359 
	C763.837524,374.351196 766.473999,360.992706 768.907166,347.553741 
	C769.493652,344.314850 771.121033,342.181458 773.411011,340.228790 
	C785.053833,330.300873 799.330322,327.542572 813.804871,324.880310 
	C826.105896,322.617859 838.043030,325.942291 850.164246,326.063629 
	C852.665100,326.088623 853.765442,327.819946 854.028076,330.334259 
	C855.005615,339.692841 855.932434,349.033813 854.032227,358.393555 
	C853.837402,359.352997 854.001953,360.385376 853.998779,361.839233 
z"/>
<path fill="#FF0000" opacity="1.000000" stroke="none" 
	d="
M358.911377,402.000183 
	C345.504669,401.010132 345.180237,400.826569 339.862610,388.588409 
	C334.058105,375.229645 330.173676,361.444611 331.073334,346.734955 
	C331.415619,341.138733 332.104828,335.573914 332.074738,329.941833 
	C332.059875,327.158722 333.992920,325.945099 336.735565,325.997894 
	C348.008972,326.215088 359.228455,324.173340 370.506195,325.027679 
	C386.944397,326.272919 402.298431,330.423035 414.715057,342.161041 
	C416.899872,344.226440 417.914215,346.741089 417.957001,349.565979 
	C418.091248,358.435760 418.892426,366.901855 422.330841,375.483826 
	C425.056061,382.285706 428.380585,388.784485 431.217499,395.507599 
	C433.947571,401.977448 433.593201,404.285736 429.241272,409.722870 
	C427.121368,412.371429 424.084869,414.373505 422.977631,417.886230 
	C422.158173,420.486053 420.483612,419.955688 418.263458,419.174988 
	C401.712189,413.354218 385.348846,406.896576 368.037140,403.513947 
	C365.157654,402.951324 362.256042,402.502014 358.911377,402.000183 
z"/>
<path fill="#FF0000" opacity="1.000000" stroke="none" 
	d="
M592.086365,820.001099 
	C598.991821,819.791260 601.053833,824.718628 602.934326,829.421326 
	C607.531494,840.917053 612.001587,852.430603 618.920776,862.832031 
	C623.564209,869.812378 629.765686,875.301758 635.689575,881.035889 
	C638.836060,884.081482 639.463257,886.831604 638.154419,891.076111 
	C631.737183,911.887146 619.019348,927.778870 601.244507,939.949341 
	C597.008362,942.849915 592.530273,942.987549 588.294006,940.627014 
	C575.046326,933.245056 564.090820,923.378174 556.010620,910.366272 
	C552.212158,904.249512 548.867798,898.001038 546.557861,891.169739 
	C545.416931,887.795776 546.007324,885.301697 548.633728,882.785461 
	C563.375854,868.661316 575.056335,852.432373 582.420898,833.232300 
	C583.868103,829.459412 586.192444,826.031311 587.828918,822.319214 
	C588.658936,820.436584 589.844788,819.868835 592.086365,820.001099 
z"/>
<path fill="#FF0000" opacity="1.000000" stroke="none" 
	d="
M612.962891,296.831421 
	C610.381226,289.417358 609.755188,282.311584 610.422363,274.807190 
	C610.870605,269.765228 607.653015,265.448730 603.601929,262.303070 
	C599.851624,259.390991 595.289246,257.045105 590.973755,259.853424 
	C585.622925,263.335510 578.946106,266.881531 580.127869,274.900604 
	C581.223755,282.337341 578.960205,288.395905 575.301208,294.593964 
	C573.471252,297.693787 569.761719,299.627258 569.431396,303.717865 
	C569.422913,303.823059 567.287659,306.329834 565.708008,303.489868 
	C561.430176,295.798950 557.045593,288.216980 551.333740,281.342346 
	C546.004395,274.927979 550.575989,268.381042 553.288025,262.230682 
	C559.895203,247.246948 572.171143,237.455215 584.650574,227.711304 
	C591.931763,222.026215 598.172852,225.030487 604.090332,229.122986 
	C616.956970,238.021454 628.665161,248.004028 634.277161,263.504791 
	C635.937134,268.089752 635.195984,272.897888 636.919067,277.336334 
	C637.063843,277.709259 636.872681,278.552582 636.587524,278.702942 
	C628.796936,282.809235 627.213074,291.980499 621.138184,297.569122 
	C617.831177,300.611389 615.622498,300.398071 612.962891,296.831421 
z"/>
<path fill="#FF0000" opacity="1.000000" stroke="none" 
	d="
M289.123260,730.415527 
	C288.976166,728.805298 289.011292,727.492615 289.003204,726.180176 
	C288.986908,723.536072 289.264343,721.119080 292.756561,721.061035 
	C295.125977,721.021667 297.527496,720.955322 297.888855,724.199646 
	C298.230255,727.265076 297.866516,729.864136 293.978851,730.198425 
	C293.509308,730.238770 293.061798,730.535583 292.276703,730.909424 
	C291.061523,730.974548 290.173706,730.843872 289.123260,730.415527 
z"/>
<path fill="#FF0000" opacity="1.000000" stroke="none" 
	d="
M287.942230,501.386353 
	C289.070343,499.107452 289.916199,496.903717 292.885712,496.998871 
	C295.600525,497.085846 297.832703,497.364349 297.967834,500.832825 
	C298.087067,503.893799 297.364197,506.083801 293.730225,505.982483 
	C293.073303,505.964203 292.414642,506.008942 291.319611,506.032166 
	C289.059448,505.178223 288.736877,503.312195 287.942230,501.386353 
z"/>
<path fill="#FF0000" opacity="1.000000" stroke="none" 
	d="
M399.902344,566.554565 
	C398.517059,566.996033 397.198181,566.936584 395.885010,566.998291 
	C392.674591,567.149231 390.981598,565.925049 390.990692,562.442749 
	C391.000000,558.883301 392.873199,557.854309 395.999573,558.003113 
	C396.984406,558.049988 397.973633,558.003662 399.397095,557.999817 
	C399.879333,560.702637 399.925323,563.405701 399.902344,566.554565 
z"/>
<path fill="#FF0000" opacity="1.000000" stroke="none" 
	d="
M330.537781,622.983337 
	C334.934113,623.872681 334.163055,626.979004 333.663757,629.641724 
	C333.181213,632.215271 330.832520,631.919922 328.873047,631.946289 
	C325.411285,631.992920 324.924042,629.703552 325.003571,626.573364 
	C326.628571,624.946899 328.152313,623.555969 330.537781,622.983337 
z"/>
<path fill="#FF0000" opacity="1.000000" stroke="none" 
	d="
M264.097748,715.397705 
	C271.990631,715.096619 273.235931,716.577209 270.428162,723.105042 
	C266.614441,722.071228 263.130219,720.689209 264.097748,715.397705 
z"/>
<path fill="#FF0000" opacity="1.000000" stroke="none" 
	d="
M762.436157,260.982788 
	C761.817078,260.729034 761.228027,260.434570 760.613525,260.210022 
	C758.410828,259.405243 756.700195,258.234283 757.586487,255.518478 
	C758.177307,253.708160 759.589111,252.761505 761.418823,253.473801 
	C763.936279,254.453781 763.971558,256.593475 763.345886,258.835968 
	C763.214172,259.308044 763.009521,259.759796 762.684143,260.648773 
	C762.529785,261.076630 762.454468,260.974182 762.436157,260.982788 
z"/>
<path fill="#FF0000" opacity="1.000000" stroke="none" 
	d="
M811.669189,222.100037 
	C811.968262,224.417999 811.893127,226.725784 808.858826,226.874344 
	C806.432983,226.993103 803.606934,227.618149 803.034241,223.543488 
	C803.000000,223.166656 803.438354,223.019608 803.666809,222.984207 
	C805.731323,222.380966 807.735718,224.560959 809.743591,222.386475 
	C810.446289,222.122238 810.892151,222.077835 811.669189,222.100037 
z"/>
<path fill="#FF0000" opacity="1.000000" stroke="none" 
	d="
M809.596436,222.097748 
	C808.910461,226.044510 806.748657,225.070633 804.163757,223.172821 
	C805.407043,221.179947 807.425964,222.331345 809.596436,222.097748 
z"/>
<path fill="#FF0000" opacity="1.000000" stroke="none" 
	d="
M327.412598,942.902344 
	C328.188385,939.451660 329.758820,938.889526 331.925293,942.505127 
	C330.608765,942.879333 329.217163,942.925354 327.412598,942.902344 
z"/>
<path fill="#000000" opacity="1.000000" stroke="none" 
	d="
M885.718750,467.678192 
	C879.236755,478.485199 873.843689,489.546051 865.973450,499.023315 
	C860.151489,506.033875 853.610291,512.197571 845.616211,516.831299 
	C834.933899,523.023132 823.439392,526.846924 811.548218,529.805298 
	C807.226746,530.880371 806.842468,528.194824 805.962219,525.228699 
	C801.709473,510.897797 798.236816,496.270355 790.963745,483.024841 
	C789.084778,479.602814 786.982239,476.248444 784.559326,473.199188 
	C782.888123,471.095825 782.958496,470.566406 785.245789,468.817841 
	C797.106628,459.750366 811.027588,455.691437 825.070007,452.086670 
	C837.684631,448.848450 850.535095,449.666199 863.427795,450.817902 
	C871.828918,451.568359 879.761780,453.717224 887.818115,455.843933 
	C891.504028,456.816925 891.097351,458.181885 889.783630,460.554443 
	C888.519592,462.837280 887.214111,465.097076 885.718750,467.678192 
z"/>
<path fill="#000000" opacity="1.000000" stroke="none" 
	d="
M310.237671,487.732666 
	C303.213318,479.709045 300.299652,469.841431 295.537262,460.983612 
	C294.894470,459.788025 294.249847,458.329102 296.440948,458.059906 
	C304.736847,457.040558 312.336609,453.439453 320.520447,451.825226 
	C334.529053,449.062195 348.278564,449.602997 361.958191,453.105957 
	C373.668396,456.104614 384.854675,460.576080 395.281860,466.731873 
	C400.015259,469.526276 400.421265,471.762360 397.123749,476.287811 
	C390.129486,485.886719 384.535309,496.077271 382.515045,507.952179 
	C381.396088,514.529175 378.355652,520.625427 377.779968,527.364746 
	C377.468323,531.013062 374.525116,532.090454 371.808685,530.761169 
	C361.418976,525.676880 350.035004,522.976013 340.092316,516.752502 
	C328.099670,509.245850 319.676453,498.276001 310.237671,487.732666 
z"/>
<path fill="#000000" opacity="1.000000" stroke="none" 
	d="
M805.962402,640.837402 
	C807.966919,638.391846 805.323853,633.916992 808.942322,633.362488 
	C811.163574,633.022217 813.723633,635.071289 816.164429,635.956604 
	C831.273315,641.437073 846.001099,647.744446 857.163513,659.802063 
	C865.715942,669.040405 873.858459,678.666016 879.174011,690.353882 
	C881.325073,695.083740 883.833862,699.761414 887.969788,703.578552 
	C882.141602,707.901184 875.362061,708.081726 868.872314,708.950867 
	C849.507324,711.544434 830.649719,708.548950 812.184875,702.877258 
	C803.101746,700.087158 794.717957,695.690247 787.644775,689.134888 
	C786.367554,687.951233 785.257141,686.767273 786.617981,684.890137 
	C791.843811,677.681519 793.760254,668.904175 797.807129,661.106079 
	C801.088074,654.783997 803.258545,647.885620 805.962402,640.837402 
z"/>
<path fill="#000000" opacity="1.000000" stroke="none" 
	d="
M333.353699,688.483276 
	C341.298035,691.089905 348.828766,690.533752 356.153656,687.364563 
	C363.136139,684.343506 369.550507,680.368286 374.675415,674.707336 
	C377.199615,671.919006 381.050903,670.645325 382.787354,666.925354 
	C383.418457,665.573425 385.066528,665.283997 386.142944,667.374878 
	C389.284271,673.476624 392.954315,679.272766 396.978088,684.831482 
	C399.008514,687.636414 397.405762,689.387085 395.411896,691.087341 
	C387.447601,697.878784 378.091217,702.086548 368.167175,704.840332 
	C355.826660,708.264771 343.190063,710.430908 330.326324,709.925842 
	C320.196869,709.528137 310.155426,708.069519 300.264282,705.697510 
	C297.083679,704.934753 296.674622,703.718933 298.000183,700.626282 
	C303.940033,686.768250 312.132507,674.727783 322.475830,663.561035 
	C334.409515,650.677368 348.341797,641.814575 364.490356,635.808289 
	C367.233032,634.788208 370.110840,634.002930 372.655884,632.613831 
	C375.556244,631.030762 376.467926,633.045105 376.822906,634.842041 
	C377.991425,640.757324 380.055847,646.402893 381.580750,652.203613 
	C382.214081,654.612854 383.530884,656.825562 378.438049,656.226746 
	C358.256744,653.853943 345.488037,662.195740 334.468872,679.002319 
	C332.590942,681.866516 332.957123,684.988342 333.353699,688.483276 
z"/>
<path fill="#000000" opacity="1.000000" stroke="none" 
	d="
M700.894775,320.040924 
	C691.680847,317.784943 687.238464,320.343414 681.912903,327.597351 
	C675.237122,336.690247 671.801880,346.786804 669.716431,357.593475 
	C668.992981,361.342041 667.229065,362.743591 663.212646,361.061920 
	C658.720032,359.180847 654.095154,357.649963 650.210388,354.600342 
	C648.601807,353.337555 647.811096,352.190094 648.583740,349.606049 
	C653.046509,334.680420 661.486572,322.309387 671.627563,310.716125 
	C681.561218,299.359863 694.341614,292.038300 706.730774,284.062622 
	C710.509460,281.630066 712.805664,283.707733 713.832275,286.854919 
	C716.354797,294.587433 718.545593,302.351593 719.216370,310.636047 
	C719.819946,318.090576 720.089233,325.511566 719.943970,332.941559 
	C719.629333,349.027679 715.894043,364.301239 708.132019,378.485748 
	C704.824585,384.529999 701.760254,384.947845 696.923096,380.502350 
	C693.427368,377.289642 689.747192,374.223450 685.850525,371.523132 
	C683.787659,370.093628 683.871643,369.383057 685.027588,367.337524 
	C689.417664,359.568695 693.892761,351.800964 697.549683,343.678772 
	C700.820068,336.415161 703.365662,328.729370 700.894775,320.040924 
z"/>
<path fill="#000000" opacity="1.000000" stroke="none" 
	d="
M502.748230,830.599609 
	C507.105438,821.453979 512.252563,813.044006 514.287231,803.320740 
	C514.452332,802.531982 514.879150,801.786377 514.971741,800.995850 
	C515.825989,793.703735 517.476501,792.565857 524.730774,794.344727 
	C526.938354,794.886047 529.129150,795.514465 531.358093,795.946167 
	C538.576355,797.343933 539.097778,798.635803 537.521912,806.099243 
	C532.263916,831.002136 516.737793,848.262817 496.331329,861.856689 
	C490.379303,865.821655 484.020325,869.196228 477.719574,872.604126 
	C475.898773,873.588989 473.472046,873.507751 473.096466,870.714539 
	C472.051422,862.942078 468.798065,855.763977 467.700104,847.922485 
	C466.181671,837.078125 465.790619,826.452209 466.791443,815.524902 
	C468.078430,801.473328 473.886597,789.327698 480.285614,777.227905 
	C481.590546,774.760376 482.968597,774.350952 485.321014,775.809631 
	C489.888062,778.641541 494.567322,781.291870 499.182556,784.046875 
	C502.233002,785.867798 502.773163,787.586365 500.015167,790.623840 
	C489.898407,801.766052 484.238403,814.874817 484.024963,830.085754 
	C483.978027,833.430420 483.213654,836.742065 488.175781,838.272705 
	C493.244446,839.836243 496.470581,837.800110 499.511566,834.738159 
	C500.599213,833.643127 501.382324,832.079651 502.748230,830.599609 
z"/>
<path fill="#000000" opacity="1.000000" stroke="none" 
	d="
M681.445496,855.579895 
	C673.521606,847.139404 665.169312,839.450195 659.202148,829.692810 
	C653.885803,820.999756 651.038147,811.303955 647.966614,801.698914 
	C647.337830,799.732849 647.482300,797.993408 649.483215,797.280701 
	C653.910522,795.703857 658.385193,794.184692 662.947998,793.089478 
	C666.078613,792.338074 668.111328,793.235413 669.259644,797.148132 
	C671.358765,804.300781 672.549805,811.805725 676.034607,818.499695 
	C680.320251,826.731934 685.454102,834.338013 694.153137,838.552856 
	C698.455139,840.637146 701.488342,838.947510 701.947388,834.303040 
	C703.294617,820.673401 699.888489,808.286926 691.733093,797.263123 
	C689.303284,793.978821 685.606018,790.771423 685.387878,787.008667 
	C685.113708,782.281006 691.384521,783.258911 694.132324,780.609009 
	C696.296875,778.521729 699.723389,778.028564 701.973389,775.655945 
	C703.279907,774.278320 704.312012,775.030945 705.365295,776.656128 
	C712.042603,786.959106 715.536072,798.381165 718.065247,810.269043 
	C720.467102,821.558472 718.959778,832.691406 718.186279,843.969482 
	C717.547363,853.285828 714.783020,861.865601 711.997925,870.556274 
	C711.513794,872.067261 710.889343,873.836487 709.041809,872.418945 
	C702.280090,867.230835 694.546631,863.636414 687.489807,858.948486 
	C686.808411,858.495850 686.277588,857.816467 685.338013,857.204529 
	C683.491272,857.731934 682.261230,857.443115 681.445496,855.579895 
z"/>
<path fill="#FF0000" opacity="1.000000" stroke="none" 
	d="
M294.607330,663.729858 
	C296.835754,663.397156 297.814484,664.252747 297.337158,666.193054 
	C297.069824,667.279846 295.997284,667.823792 294.965576,667.388184 
	C293.139709,666.617310 292.996674,665.326294 294.607330,663.729858 
z"/>
<path fill="#FF0000" opacity="1.000000" stroke="none" 
	d="
M679.808838,365.462646 
	C677.589905,365.092834 676.913574,363.982178 677.965271,362.278259 
	C678.554688,361.323334 679.738403,361.137177 680.588867,361.868195 
	C682.097412,363.164764 681.822327,364.434845 679.808838,365.462646 
z"/>
<path fill="#FF0000" opacity="1.000000" stroke="none" 
	d="
M681.318115,855.517944 
	C682.950928,854.859741 683.477966,856.161499 684.681763,857.008423 
	C684.717407,858.841248 684.412354,860.914124 682.168091,860.349182 
	C679.544556,859.688843 680.530273,857.603394 681.318115,855.517944 
z"/>
<path fill="#FF0000" opacity="1.000000" stroke="none" 
	d="
M712.191162,741.537476 
	C714.410400,741.907104 715.086182,743.018005 714.034790,744.721802 
	C713.445557,745.676636 712.261719,745.862915 711.411255,745.131836 
	C709.902954,743.835388 710.177368,742.565247 712.191162,741.537476 
z"/>
<path fill="#FF0000" opacity="1.000000" stroke="none" 
	d="
M494.401611,874.730652 
	C495.991943,876.336060 495.865753,877.629089 494.023956,878.391418 
	C492.985199,878.821350 491.917877,878.266052 491.660034,877.180542 
	C491.201263,875.248962 492.167755,874.378113 494.401611,874.730652 
z"/>
<path fill="#000000" opacity="1.000000" stroke="none" 
	d="
M550.988342,415.080170 
	C561.607422,397.505066 576.541504,383.874725 588.957153,368.192932 
	C591.686279,364.745880 593.035767,365.673492 596.485962,368.417969 
	C605.876831,375.887756 613.508118,384.661560 619.995605,394.557861 
	C624.818054,401.914337 630.006470,409.144928 633.834473,417.014069 
	C640.500488,430.717102 643.356140,445.064880 640.390625,460.605316 
	C638.071045,472.760681 634.260010,483.779877 624.606567,491.768585 
	C608.910400,504.757996 586.574219,509.528748 568.465698,497.631622 
	C556.067322,489.485992 549.069580,477.050018 545.108093,462.996674 
	C540.431641,446.407196 542.711060,430.532867 550.988342,415.080170 
z"/>
<path fill="#FF0000" opacity="1.000000" stroke="none" 
	d="
M285.075378,918.977051 
	C286.957642,920.731445 286.993134,922.326904 285.327972,923.831055 
	C284.392639,924.675903 283.246552,924.820251 282.133087,924.151672 
	C280.905182,923.414429 280.095520,922.285217 280.572601,920.861755 
	C281.236389,918.881653 282.636261,917.946655 285.075378,918.977051 
z"/>
<path fill="#FF0000" opacity="1.000000" stroke="none" 
	d="
M323.481384,919.663452 
	C325.553558,920.999756 326.205109,922.498108 324.803467,924.357849 
	C324.065155,925.337219 322.987396,925.818359 321.749817,925.414795 
	C320.382111,924.968872 319.387390,923.967590 319.496643,922.522278 
	C319.657166,920.398682 320.948151,919.308777 323.481384,919.663452 
z"/>
<path fill="#000000" opacity="1.000000" stroke="none" 
	d="
M796.265930,783.379883 
	C801.993774,777.591553 807.896790,778.067261 815.536377,783.963379 
	C821.719543,788.735352 824.449402,795.500000 826.861572,802.385376 
	C828.488220,807.028320 823.520813,812.810425 818.491089,813.017395 
	C812.716614,813.254944 806.870605,813.317688 801.825195,810.183167 
	C794.039612,805.346069 787.255127,795.823181 796.265930,783.379883 
z"/>
<path fill="#FF0000" opacity="1.000000" stroke="none" 
	d="
M808.834290,768.364502 
	C811.047485,769.450439 811.295654,770.865234 809.741150,772.257935 
	C808.808777,773.093323 807.413513,772.917297 806.775696,771.795776 
	C805.757751,770.005676 806.347717,768.700623 808.834290,768.364502 
z"/>
<path fill="#000000" opacity="1.000000" stroke="none" 
	d="
M388.923828,809.014282 
	C383.567963,812.968872 377.379547,813.944885 371.624908,815.910767 
	C369.177490,816.746887 367.195587,815.610657 365.581512,813.164673 
	C358.644409,802.652344 359.127075,799.348755 364.383850,789.448120 
	C367.953552,782.724976 380.169067,778.185608 387.833130,780.116638 
	C392.488037,781.289551 395.569000,784.547180 397.019684,789.252441 
	C399.026733,795.762268 397.525757,801.336670 392.693726,806.048523 
	C391.630432,807.085388 390.427551,807.979126 388.923828,809.014282 
z"/>
<path fill="#000000" opacity="1.000000" stroke="none" 
	d="
M266.940247,585.788513 
	C265.200531,579.818176 267.766266,571.857971 273.041046,568.636536 
	C278.535034,565.281189 284.387756,562.554138 291.308533,563.946350 
	C296.691223,565.029114 299.310944,568.494934 297.944824,573.731934 
	C296.017853,581.118958 293.960388,588.472046 291.950958,595.837524 
	C291.147919,598.780945 289.176605,599.894531 286.164337,600.050781 
	C280.382050,600.350586 270.470947,595.374878 266.940247,585.788513 
z"/>
<path fill="#000000" opacity="1.000000" stroke="none" 
	d="
M907.342529,564.018799 
	C913.991821,566.562561 918.772339,570.827637 920.852478,577.166565 
	C923.680725,585.785461 919.574219,593.556458 911.244873,598.437927 
	C905.962708,601.533447 900.112488,600.253174 894.629456,602.070984 
	C895.571838,597.023682 891.624695,593.583984 891.387634,589.020081 
	C891.011047,581.767517 890.363220,574.548645 892.060425,567.391724 
	C892.715576,564.629028 895.122620,564.165771 897.431396,564.045898 
	C900.584045,563.882324 903.751465,564.005371 907.342529,564.018799 
z"/>
<path fill="#000000" opacity="1.000000" stroke="none" 
	d="
M799.950928,384.458679 
	C787.646423,380.580658 787.678101,370.250977 794.522217,361.875092 
	C800.127319,355.015442 807.878113,352.704254 815.911987,351.179871 
	C821.888794,350.045776 827.622742,358.928741 825.825378,366.254913 
	C822.609131,379.365021 814.301453,386.833984 799.950928,384.458679 
z"/>
<path fill="#000000" opacity="1.000000" stroke="none" 
	d="
M361.202911,355.308350 
	C366.823303,349.382019 373.124664,351.407043 379.224426,353.051849 
	C387.347107,355.242126 394.020752,359.482758 396.497650,368.080322 
	C398.282501,374.275574 395.689758,379.237762 391.111420,383.437439 
	C386.901123,387.299591 382.607819,387.653473 377.142059,385.782684 
	C366.494324,382.138306 361.977844,373.434357 358.357391,364.160950 
	C357.453583,361.845886 358.709778,358.058044 361.202911,355.308350 
z"/>
<path fill="#000000" opacity="1.000000" stroke="none" 
	d="
M594.704346,905.962036 
	C585.934082,905.034363 580.630554,900.150208 579.058716,891.951416 
	C577.821167,885.496155 581.383118,879.432861 588.506592,875.843811 
	C589.967712,875.107605 591.791321,874.657837 592.780090,873.503845 
	C595.104614,870.790894 598.443665,872.140625 599.311218,873.388672 
	C601.739075,876.881165 605.570068,878.765869 607.574463,883.151062 
	C610.048218,888.562988 609.220337,892.547241 606.586060,896.657654 
	C603.866394,900.901123 600.241028,904.464722 594.704346,905.962036 
z"/>
<path fill="#FF0000" opacity="1.000000" stroke="none" 
	d="
M808.330444,498.815308 
	C803.420349,493.788574 803.578064,486.233673 808.948730,482.697876 
	C819.960266,475.448578 831.718079,470.041870 845.327576,469.950745 
	C848.677979,469.928314 852.265381,470.255585 853.494751,473.335083 
	C854.794434,476.590607 854.692383,480.517761 852.609985,483.845551 
	C846.848267,493.053680 838.085754,497.843201 827.799133,499.913788 
	C821.437256,501.194397 814.866272,502.705048 808.330444,498.815308 
z"/>
<path fill="#FF0000" opacity="1.000000" stroke="none" 
	d="
M363.258484,475.681885 
	C369.541016,478.230591 373.448303,483.630310 379.380127,486.260559 
	C382.283997,487.548187 383.478394,491.689911 382.952911,495.388123 
	C382.500732,498.570557 379.583862,498.423950 377.378906,499.270721 
	C365.816528,503.711395 355.609161,499.392059 345.731598,494.097656 
	C339.775635,490.905304 334.653137,486.685211 332.801605,479.538116 
	C331.464264,474.375702 333.475403,471.226257 338.598541,470.974945 
	C347.083832,470.558746 355.232727,471.777283 363.258484,475.681885 
z"/>
<path fill="#FF0000" opacity="1.000000" stroke="none" 
	d="
M816.140381,659.000000 
	C829.264954,658.700989 839.169128,664.527954 847.664490,673.235046 
	C850.215637,675.849854 851.149414,679.513000 851.884888,682.957520 
	C852.581970,686.222534 850.267700,688.679993 847.324951,688.862061 
	C833.314941,689.728882 820.326660,687.194641 810.482605,675.980469 
	C807.486511,672.567383 806.494263,668.407349 807.072571,664.056763 
	C807.744141,659.004089 811.645996,658.718872 816.140381,659.000000 
z"/>
<path fill="#FF0000" opacity="1.000000" stroke="none" 
	d="
M603.524536,410.216370 
	C616.741760,418.852142 620.446716,435.509155 616.691223,451.729187 
	C614.725037,460.221436 611.553894,467.643066 603.851807,472.788116 
	C590.378174,481.788635 576.766296,475.417358 570.702698,463.177277 
	C563.169006,447.969666 564.011963,433.191956 573.974548,419.223541 
	C577.051270,414.909729 580.547363,410.814270 585.294250,408.381165 
	C591.433289,405.234467 597.359314,407.879822 603.524536,410.216370 
z"/>
</svg>